<svg width="1600" height="900" viewBox="0 0 1600 900" fill="none" xmlns="http://www.w3.org/2000/svg">
  <defs>
    <linearGradient id="bg" x1="0" y1="0" x2="1600" y2="900" gradientUnits="userSpaceOnUse">
      <stop stop-color="#071A2C"/>
      <stop offset="1" stop-color="#0D2F47"/>
    </linearGradient>
    <linearGradient id="card" x1="280" y1="160" x2="1320" y2="740" gradientUnits="userSpaceOnUse">
      <stop stop-color="#FFFFFF" stop-opacity="0.22"/>
      <stop offset="1" stop-color="#B8E6FF" stop-opacity="0.10"/>
    </linearGradient>
    <linearGradient id="accent" x1="0" y1="0" x2="1" y2="1">
      <stop stop-color="#4FD1FF"/>
      <stop offset="1" stop-color="#73F2C6"/>
    </linearGradient>
    <filter id="soft" x="220" y="100" width="1160" height="700" filterUnits="userSpaceOnUse">
      <feDropShadow dx="0" dy="24" stdDeviation="30" flood-color="#02111E" flood-opacity="0.55"/>
    </filter>
  </defs>

  <rect width="1600" height="900" fill="url(#bg)"/>
  <circle cx="1460" cy="140" r="240" fill="#7ED7FF" fill-opacity="0.10"/>
  <circle cx="160" cy="820" r="300" fill="#5CE4CB" fill-opacity="0.08"/>

  <g filter="url(#soft)">
    <rect x="280" y="160" width="1040" height="580" rx="34" fill="url(#card)" stroke="#AEE6FF" stroke-opacity="0.35"/>
  </g>

  <rect x="350" y="235" width="360" height="14" rx="7" fill="#EAF8FF" fill-opacity="0.9"/>
  <rect x="350" y="268" width="480" height="10" rx="5" fill="#CCEBFA" fill-opacity="0.75"/>

  <rect x="350" y="330" width="900" height="2" fill="#9BDCF7" fill-opacity="0.45"/>

  <rect x="350" y="382" width="420" height="18" rx="9" fill="#DDF4FF" fill-opacity="0.92"/>
  <rect x="350" y="418" width="600" height="12" rx="6" fill="#C7E9F9" fill-opacity="0.75"/>
  <rect x="350" y="446" width="540" height="12" rx="6" fill="#C7E9F9" fill-opacity="0.65"/>
  <rect x="350" y="474" width="640" height="12" rx="6" fill="#C7E9F9" fill-opacity="0.55"/>

  <rect x="350" y="545" width="280" height="68" rx="14" fill="url(#accent)" fill-opacity="0.92"/>
  <rect x="670" y="545" width="280" height="68" rx="14" fill="#E4F6FF" fill-opacity="0.2" stroke="#AEE6FF" stroke-opacity="0.5"/>
  <rect x="990" y="545" width="260" height="68" rx="14" fill="#E4F6FF" fill-opacity="0.2" stroke="#AEE6FF" stroke-opacity="0.5"/>

  <circle cx="1160" cy="290" r="90" fill="#AEE6FF" fill-opacity="0.13"/>
  <path d="M1120 290H1200M1160 250V330" stroke="url(#accent)" stroke-width="14" stroke-linecap="round"/>

  <text x="350" y="690" fill="#EAF8FF" fill-opacity="0.95" font-family="Arial, sans-serif" font-size="52" font-weight="700">Arogya Health Report</text>
  <text x="350" y="730" fill="#C7E9F9" fill-opacity="0.95" font-family="Arial, sans-serif" font-size="24">Generated report cover image</text>
</svg>
